<svg width="87" height="85" viewBox="0 0 87 85" fill="none" xmlns="http://www.w3.org/2000/svg">
<path fill-rule="evenodd" clip-rule="evenodd" d="M27.0527 4.43063C27.32 4.24801 27.6436 4.15823 27.9705 4.17595L39.441 4.79764C39.7635 4.81512 40.0706 4.93616 40.3137 5.14154L53.4012 16.2007C53.7474 16.4933 53.9291 16.9274 53.8905 17.3701L52.8801 28.9747C52.8567 29.2438 52.7531 29.5005 52.5819 29.714L46.0237 37.8876L51.2578 37.3048L51.2651 37.304L65.6445 35.603L77.1032 31.1425C78.1496 30.7352 79.2553 31.5885 79.0743 32.6638L77.9433 39.3843L82.5906 54.5736C82.657 54.7907 82.6679 55.0202 82.6221 55.2423L79.221 71.7663C79.1343 72.1877 78.8517 72.5472 78.4548 72.7413L69.6904 77.0266C69.5396 77.1004 69.3766 77.148 69.2088 77.1675L37.9498 80.7926C37.7728 80.8131 37.5934 80.8019 37.4207 80.7596L18.3688 76.0889C18.1192 76.0277 17.891 75.9034 17.7078 75.7287L4.27003 62.9221C3.926 62.5942 3.77406 62.1222 3.86499 61.6638L6.45353 48.6135C6.54126 48.1712 6.84426 47.7967 7.26756 47.6075L21.7614 41.129L17.1481 36.4513H7.77038C6.5528 36.4513 5.87861 35.0888 6.64365 34.1743L11.764 28.0532L4.4637 18.4446C3.62822 17.345 4.75065 15.8591 6.09038 16.2912L12.246 18.2764L13.6588 18.6757L15.5176 12.6757C15.6104 12.3763 15.8044 12.1155 16.0687 11.9349L27.0527 4.43063ZM11.6213 20.2017L13.6085 20.8426C13.6876 20.8681 13.7674 20.8867 13.847 20.8986L22.1988 26.3619L10.9951 32.1828L13.6994 28.95C14.1124 28.4563 14.1292 27.756 13.7404 27.2442L7.50624 19.0388L11.6213 20.2017ZM20.7975 29.3807L11.0709 34.4341H17.0582L20.7975 29.3807ZM18.9476 35.3507L23.8913 40.3634C23.9639 40.4371 24.0262 40.5157 24.0787 40.5979L34.1963 46.2096L24.1069 28.3783L18.9476 35.3507ZM42.8125 38.599L36.9815 46.9245L26.073 27.6457L49.8417 29.8352L43.4396 37.8143C43.1902 38.1252 43.103 38.4793 43.1408 38.8134L42.8125 38.599ZM26.1436 25.6259L49.0931 27.7399L34.9473 13.7282L26.1436 25.6259ZM44.3194 40.0485L38.3793 48.5297L51.978 56.0721L63.8536 37.8471L51.5045 39.3079L44.7505 40.0599C44.5998 40.0767 44.4555 40.0718 44.3194 40.0485ZM35.3894 49.1977L23.4714 42.5874L23.4508 42.5968L10.005 48.6068L29.6523 57.389L35.3894 49.1977ZM31.5731 58.2476L37.2059 50.2052L50.8646 57.7809L46.2776 64.8204L31.5731 58.2476ZM26.3609 58.1407L8.29294 50.0644L6.15077 60.8644L26.3609 58.1407ZM27.8389 59.9783L7.08934 62.7746L18.3584 73.5145L27.8389 59.9783ZM20.2176 74.4609L30.3874 59.9405L45.1558 66.5419L37.2715 78.6418L20.2176 74.4609ZM48.1891 65.6749L52.6776 58.7865L75.9601 71.7L69.1345 75.0373L48.1891 65.6749ZM54.3321 56.2475L80.2532 54.0544L75.8982 39.8205C75.8366 39.6193 75.8228 39.4072 75.8576 39.2L76.8297 33.4239L66.6125 37.4012L54.3321 56.2475ZM55.7316 58.154L80.321 56.0736L77.4171 70.1817L55.7316 58.154ZM36.1813 12.0606L50.9799 26.7189L51.7815 17.5127L39.7007 7.30426L36.1813 12.0606ZM37.568 6.7165L34.6996 10.593L30.3934 6.32765L37.568 6.7165ZM33.4656 12.2606L23.9746 25.087L15.5588 19.5818L17.4559 13.4583L27.6461 6.49635L33.4656 12.2606ZM47.0674 67.3964L65.3762 75.5803L39.8021 78.5461L47.0674 67.3964Z" fill="white"/>
</svg>
