<svg width="40" height="40" viewBox="0 0 40 40" fill="none" xmlns="http://www.w3.org/2000/svg">
<path fill-rule="evenodd" clip-rule="evenodd" d="M12.4386 1.87135C12.5615 1.78438 12.7102 1.74163 12.8605 1.75007L18.1343 2.04611C18.2826 2.05444 18.4238 2.11208 18.5355 2.20987L24.5528 7.47614C24.712 7.61548 24.7955 7.82219 24.7778 8.03302L24.3132 13.559C24.3025 13.6871 24.2548 13.8094 24.1761 13.911L21.1608 17.8032L23.5673 17.5257L23.5707 17.5253L30.1819 16.7153L35.4502 14.5913C35.9314 14.3973 36.4397 14.8036 36.3565 15.3157L35.8365 18.516L37.9732 25.7489C38.0037 25.8524 38.0087 25.9616 37.9877 26.0674L36.424 33.936C36.3841 34.1366 36.2542 34.3078 36.0717 34.4002L32.0421 36.4409C31.9728 36.476 31.8978 36.4987 31.8207 36.508L17.4487 38.2342C17.3673 38.244 17.2849 38.2386 17.2054 38.2185L8.44592 35.9943C8.33118 35.9652 8.22627 35.906 8.14201 35.8228L1.96375 29.7244C1.80557 29.5683 1.73572 29.3435 1.77752 29.1252L2.96766 22.9108C3.00799 22.7002 3.1473 22.5219 3.34192 22.4318L10.0058 19.3468L7.8847 17.1193H3.57311C3.0133 17.1193 2.70333 16.4705 3.05507 16.035L5.40924 13.1202L2.05279 8.54469C1.66866 8.02104 2.18472 7.31346 2.80069 7.51922L5.63085 8.46457L6.28042 8.65469L7.13507 5.79757C7.17772 5.65498 7.26691 5.5308 7.3884 5.44483L12.4386 1.87135ZM5.34368 9.38139L6.25728 9.68656C6.29366 9.69871 6.33033 9.70755 6.36697 9.71324L10.2068 12.3148L5.05575 15.0866L6.29908 13.5472C6.48896 13.3121 6.49672 12.9786 6.31796 12.735L3.45166 8.82763L5.34368 9.38139ZM9.56259 13.7523L5.09057 16.1587H7.84336L9.56259 13.7523ZM8.71205 16.5952L10.985 18.9822C11.0184 19.0173 11.0471 19.0547 11.0712 19.0939L15.7229 21.7661L11.0841 13.275L8.71205 16.5952ZM19.6844 18.142L17.0035 22.1065L11.9881 12.9261L22.9163 13.9688L19.9728 17.7684C19.8581 17.9164 19.818 18.085 19.8354 18.2441L19.6844 18.142ZM12.0205 11.9643L22.5721 12.971L16.0682 6.29878L12.0205 11.9643ZM20.3772 18.8322L17.6462 22.8709L23.8985 26.4625L29.3585 17.784L23.6807 18.4796L20.5755 18.8377C20.5062 18.8457 20.4398 18.8433 20.3772 18.8322ZM16.2715 23.189L10.7919 20.0412L10.7825 20.0457L4.60051 22.9076L13.6338 27.0896L16.2715 23.189ZM14.5169 27.4985L17.1067 23.6687L23.3865 27.2762L21.2776 30.6284L14.5169 27.4985ZM12.1205 27.4476L3.81336 23.6017L2.82846 28.7445L12.1205 27.4476ZM12.8 28.3226L3.25999 29.6542L8.44117 34.7684L12.8 28.3226ZM9.29597 35.2191L13.9717 28.3046L20.7618 31.4481L17.1368 37.21L9.29597 35.2191ZM22.1564 31.0353L24.2201 27.7551L34.9247 33.9044L31.7865 35.4936L22.1564 31.0353ZM24.9808 26.546L36.8986 25.5017L34.8962 18.7237C34.8679 18.6278 34.8616 18.5268 34.8776 18.4282L35.3245 15.6777L30.627 17.5716L24.9808 26.546ZM25.6242 27.4539L36.9297 26.4632L35.5946 33.1814L25.6242 27.4539ZM16.6356 5.50467L23.4396 12.4848L23.8081 8.10092L18.2537 3.23974L16.6356 5.50467ZM17.2732 2.95986L15.9543 4.8058L13.9745 2.77469L17.2732 2.95986ZM15.387 5.59991L11.0233 11.7077L7.15398 9.08617L8.02622 6.17024L12.7114 2.85502L15.387 5.59991ZM21.6407 31.855L30.0585 35.7521L18.3004 37.1644L21.6407 31.855Z" fill="white"/>
</svg>
