<svg width="381" height="378" viewBox="0 0 381 378" fill="none" xmlns="http://www.w3.org/2000/svg">
<path d="M220.359 20.3303L233.824 12.556C234.058 12.9615 234.293 13.3671 234.527 13.7726C236.595 17.3546 238.663 20.9366 240.731 24.5186C240.951 24.7853 241.058 25.1272 241.031 25.4713C241.003 25.8155 240.842 26.1348 240.583 26.3613C238.801 28.5942 237.734 31.3162 237.523 34.1714C237.311 37.0266 237.965 39.8821 239.398 42.3646C240.831 44.847 242.978 46.8408 245.556 48.0854C248.134 49.33 251.025 49.7673 253.85 49.3402C254.174 49.2493 254.52 49.2821 254.823 49.4321C255.125 49.5822 255.361 49.839 255.486 50.1528C258.744 55.7962 262.002 61.4396 265.241 67.0491C265.452 67.3196 265.554 67.6592 265.526 68.0006C265.499 68.342 265.344 68.6601 265.093 68.8918C263.303 71.1189 262.23 73.8386 262.014 76.6935C261.798 79.5485 262.449 82.4049 263.883 84.8874C265.316 87.3699 267.464 89.3623 270.044 90.6027C272.625 91.843 275.517 92.2733 278.34 91.837C278.671 91.7516 279.022 91.7906 279.327 91.9465C279.632 92.1024 279.87 92.3645 279.996 92.6834C283.254 98.3267 286.512 103.97 289.751 109.58C289.964 109.848 290.072 110.185 290.055 110.527C290.037 110.869 289.896 111.193 289.656 111.437C287.867 113.664 286.793 116.384 286.577 119.238C286.361 122.093 287.013 124.95 288.446 127.432C289.879 129.915 292.027 131.907 294.608 133.148C297.188 134.388 300.08 134.818 302.904 134.382C303.237 134.277 303.598 134.304 303.912 134.458C304.227 134.611 304.47 134.88 304.593 135.209C307.851 140.852 311.09 146.462 314.348 152.105C314.57 152.37 314.683 152.709 314.665 153.054C314.648 153.398 314.501 153.723 314.253 153.962C312.464 156.189 311.39 158.909 311.174 161.764C310.958 164.619 311.61 167.475 313.043 169.958C314.476 172.44 316.624 174.433 319.205 175.673C321.785 176.913 324.677 177.344 327.501 176.907C327.834 176.802 328.195 176.829 328.509 176.983C328.824 177.137 329.067 177.406 329.19 177.734C332.429 183.344 335.687 188.987 338.945 194.631C339.167 194.896 339.28 195.234 339.262 195.579C339.245 195.924 339.097 196.248 338.85 196.488C337.068 198.721 336.001 201.443 335.79 204.298C335.579 207.153 336.232 210.008 337.666 212.491C339.099 214.973 341.245 216.967 343.823 218.212C346.402 219.456 349.292 219.894 352.117 219.467C352.436 219.349 352.788 219.363 353.098 219.505C353.407 219.647 353.648 219.907 353.767 220.226C356.479 224.923 359.172 229.586 361.884 234.284C362.059 234.588 362.254 234.926 362.449 235.264L348.95 243.057C342.894 237.543 336.997 236.036 331.435 238.842C328.641 240.185 326.362 242.402 324.939 245.16C323.995 247.007 323.457 249.037 323.362 251.112C323.267 253.188 323.618 255.261 324.39 257.192L306.413 267.571C304.364 264.954 301.482 263.119 298.25 262.372C295.135 261.654 291.872 262.009 288.99 263.379C286.108 264.748 283.774 267.053 282.365 269.921C281.48 271.744 280.984 273.733 280.911 275.762C280.838 277.79 281.188 279.813 281.94 281.701L264.031 292.041C261.921 289.271 258.879 287.364 255.474 286.675C252.069 285.985 248.534 286.562 245.531 288.296C242.527 290.03 240.26 292.803 239.155 296.097C238.049 299.39 238.18 302.978 239.524 306.19L221.715 316.471C215.895 310.821 209.955 309.474 204.374 312.246C201.558 313.551 199.246 315.74 197.786 318.482C196.808 320.346 196.249 322.403 196.147 324.508C196.045 326.614 196.402 328.718 197.194 330.674L179.352 340.975C173.227 335.185 167.225 333.964 161.655 336.91C158.418 338.525 155.917 341.312 154.655 344.707C153.392 348.103 153.462 351.856 154.85 355.211L140.274 363.627L131.221 347.947L132.003 347.045C133.688 345.296 134.895 343.141 135.509 340.787C136.122 338.432 136.122 335.958 135.508 333.599C134.895 331.241 133.687 329.078 132.002 327.317C130.317 325.557 128.211 324.257 125.885 323.544C123.031 322.737 120.009 322.762 117.174 323.616L106.561 305.233L106.964 305C108.367 303.672 109.483 302.069 110.243 300.29C111.002 298.512 111.39 296.595 111.382 294.658C111.374 292.721 110.97 290.805 110.195 289.028C109.42 287.25 108.291 285.65 106.877 284.324C105.016 282.54 102.705 281.297 100.194 280.73C97.6835 280.162 95.0682 280.292 92.6303 281.105L82.0362 262.756C84.4798 260.588 86.0992 257.639 86.6211 254.407C87.1429 251.176 86.5354 247.859 84.9009 245.017C83.2621 242.175 80.6938 239.986 77.6323 238.821C74.5708 237.656 71.2047 237.588 68.106 238.628L57.4925 220.245L58.1497 219.595C60.775 216.938 62.2489 213.349 62.2532 209.604C62.2574 205.859 60.7917 202.257 58.1724 199.577C56.3079 197.676 53.9458 196.343 51.3599 195.73C48.774 195.118 46.0703 195.252 43.5622 196.117L32.9682 177.767L33.7493 176.866C35.4442 175.131 36.6656 172.988 37.297 170.643C37.9284 168.297 37.9487 165.826 37.3559 163.466C36.7631 161.106 35.5771 158.936 33.911 157.162C32.2449 155.388 30.1543 154.071 27.8387 153.334C24.91 152.512 21.8116 152.536 18.9013 153.403L11.6436 140.832L26.22 132.416C26.4346 132.788 26.6492 133.16 27.0994 133.396C29.6037 136.126 33.066 137.778 36.755 138.002C40.444 138.226 44.0708 137.005 46.8694 134.597C49.1349 132.629 50.7231 129.996 51.4094 127.069C52.0957 124.142 51.8452 121.069 50.6935 118.287L68.5689 107.966C68.7445 108.27 69.0884 108.477 69.2782 108.728C71.5899 111.335 74.7662 113.014 78.2149 113.452C81.6637 113.89 85.1495 113.057 88.0225 111.108C90.6988 109.243 92.6534 106.514 93.5608 103.375C94.4681 100.235 94.2733 96.8758 93.0088 93.8559L111.12 83.3994C111.243 83.6875 111.4 83.9598 111.588 84.2104C113.016 85.8508 114.798 87.1429 116.799 87.9878C118.8 88.8328 120.966 89.208 123.131 89.0848C125.296 88.9615 127.402 88.3431 129.288 87.2769C131.174 86.2107 132.79 84.725 134.012 82.9339C135.388 81.0055 136.225 78.7431 136.438 76.3792C136.651 74.0153 136.232 71.6352 135.223 69.4834L153.301 59.0464C154.891 61.2455 157.098 62.9221 159.639 63.8624C162.181 64.8026 164.942 64.9637 167.57 64.3252C170.259 63.8374 172.736 62.5469 174.676 60.6227C176.617 58.6985 177.93 56.2302 178.444 53.5409C179.127 50.6537 178.94 47.6259 177.909 44.8388L195.784 34.5184L196.63 35.517C199.136 38.2317 202.588 39.8746 206.266 40.1022C209.944 40.3297 213.563 39.1244 216.366 36.7382C218.686 34.7883 220.324 32.147 221.041 29.1969C221.759 26.2469 221.52 23.1413 220.359 20.3303V20.3303ZM244.875 165.181C252.608 178.6 255.016 194.43 251.618 209.512C248.22 224.595 239.267 237.82 226.545 246.549C215.162 254.672 201.256 258.47 187.307 257.263C177.248 256.606 167.5 253.466 158.932 248.121C150.363 242.777 143.242 235.394 138.203 226.633L128.104 232.464C142.805 255.516 163.645 268.445 191.108 268.9C203.953 269.013 216.588 265.729 227.74 259.382C238.892 253.034 248.166 243.846 254.627 232.744C261.087 221.643 264.506 209.022 264.537 196.153C264.569 183.284 261.212 170.623 254.806 159.448L244.875 165.181ZM140.61 167.751C137.25 161.784 132.945 156.402 127.864 151.816C124.784 148.859 120.998 146.747 116.871 145.682C115.815 145.386 114.71 145.312 113.626 145.463C112.541 145.614 111.5 145.987 110.567 146.559C109.634 147.132 108.829 147.891 108.203 148.79C107.577 149.688 107.143 150.707 106.928 151.783C105.999 155.194 105.885 158.779 106.596 162.247C109.064 175.942 115.945 188.462 126.185 197.887C129.278 201.037 133.147 203.312 137.398 204.48C138.437 204.819 139.534 204.944 140.621 204.846C141.709 204.748 142.764 204.429 143.723 203.909C144.683 203.389 145.526 202.678 146.201 201.82C146.877 200.963 147.371 199.976 147.653 198.919C148.511 196.063 148.748 193.053 148.347 190.093C147.342 182.194 144.707 174.585 140.61 167.751ZM179.663 144.979C179.253 144.269 178.863 143.593 178.473 142.917C175.31 137.637 171.329 132.894 166.679 128.865C163.769 126.208 160.292 124.255 156.515 123.154C155.429 122.784 154.279 122.651 153.139 122.762C152 122.873 150.898 123.226 149.907 123.798C148.916 124.37 148.059 125.148 147.393 126.079C146.727 127.01 146.268 128.074 146.045 129.198C145.358 131.769 145.139 134.445 145.398 137.096C146.023 143.142 147.708 149.033 150.374 154.499C153.919 162.357 158.994 169.431 165.302 175.302C168.418 178.394 172.255 180.655 176.462 181.881C177.547 182.251 178.698 182.384 179.837 182.273C180.977 182.162 182.078 181.809 183.069 181.237C184.06 180.665 184.917 179.887 185.583 178.956C186.249 178.025 186.708 176.961 186.931 175.837C187.727 172.679 187.874 169.39 187.364 166.17C186.213 158.671 183.596 151.47 179.663 144.979ZM192.157 136.999C195.082 142.166 198.675 146.924 202.842 151.151C206.159 154.705 210.276 157.411 214.849 159.042C216.005 159.55 217.261 159.784 218.52 159.726C219.78 159.669 221.008 159.322 222.11 158.712C223.211 158.102 224.157 157.245 224.874 156.209C225.591 155.172 226.059 153.983 226.243 152.734C226.954 149.653 227.048 146.46 226.519 143.338C225.712 137.502 223.956 131.833 221.32 126.56C217.673 118.873 212.526 111.993 206.183 106.328C203.143 103.451 199.423 101.396 195.375 100.358C194.391 100.057 193.358 99.9546 192.335 100.056C191.313 100.158 190.321 100.461 189.418 100.95C188.514 101.438 187.717 102.1 187.072 102.9C186.426 103.699 185.946 104.619 185.658 105.607C184.601 108.731 184.31 112.067 184.81 115.333C185.798 122.968 188.296 130.334 192.157 136.999Z" fill="#1400FF"/>
</svg>
