<svg width="34" height="34" viewBox="0 0 34 34" fill="none" xmlns="http://www.w3.org/2000/svg">
<g clip-path="url(#clip0_2047_14690)">
<path d="M25.8602 31.7393C24.3445 29.4813 22.8299 27.2223 21.3082 24.9683C21.2077 24.8206 21.2137 24.7402 21.3283 24.6088C22.066 23.7634 22.7947 22.9099 23.5254 22.0595C24.2571 21.209 24.9878 20.3596 25.7547 19.4674C25.6371 19.4603 25.5728 19.4531 25.5084 19.4531C24.5044 19.4521 23.4993 19.4664 22.4952 19.444C22.1786 19.4368 21.9786 19.5366 21.7776 19.7801C20.6288 21.1734 19.4608 22.5504 18.3 23.9325C18.2407 24.0028 18.1874 24.0944 18.0768 24.0588C17.9592 24.0221 18.0115 23.9152 18.0115 23.8418C18.0085 21.5166 18.0105 19.1924 18.0055 16.8682C18.0055 16.7164 18.0467 16.6522 18.1985 16.6105C19.6046 16.2204 20.8157 15.4901 21.7846 14.3871C23.2048 12.7707 23.8199 10.8834 23.6018 8.71403C23.4349 7.06303 22.8419 5.60148 21.7233 4.39863C19.8739 2.40746 17.5793 1.67719 14.9299 2.12941C13.6565 2.34635 12.5348 2.933 11.5549 3.77429C9.08837 5.89074 8.31044 9.44327 9.6482 12.4255C10.6101 14.5694 12.2262 15.9495 14.4445 16.6196C14.8334 16.7378 14.8344 16.7337 14.8344 17.1452C14.8344 21.9984 14.8365 26.8515 14.8304 31.7037C14.8304 31.9308 14.8807 32.0041 15.1159 32.0001C16.0034 31.9848 16.8908 31.9889 17.7783 31.999C17.9693 32.0011 18.0145 31.944 18.0135 31.7566C18.0045 30.62 18.0135 29.4833 18.0055 28.3467C18.0035 28.1552 18.0537 28.0106 18.1814 27.87C18.4296 27.595 18.6719 27.3129 18.898 27.0186C19.0337 26.8413 19.1 26.8739 19.2126 27.041C20.288 28.6268 21.3725 30.2065 22.449 31.7933C22.5495 31.942 22.655 32.0011 22.8359 31.999C23.8068 31.9889 24.7777 31.995 25.7497 31.9929C25.827 31.9929 25.9115 32.0143 25.9999 31.9593C25.9487 31.8789 25.9065 31.8076 25.8602 31.7393ZM16.2858 13.8137C13.9419 13.8493 11.777 11.8052 11.9318 9.08884C12.0654 6.73304 14.1118 4.87325 16.4737 4.94862C18.6668 5.01992 20.7966 6.8023 20.7413 9.43309C20.6891 11.8948 18.701 13.8585 16.2858 13.8137Z" fill="black"/>
</g>
<defs>
<clipPath id="clip0_2047_14690">
<rect width="17" height="30" fill="white" transform="translate(9 2)"/>
</clipPath>
</defs>
</svg>
