<svg width="34" height="34" viewBox="0 0 34 34" fill="none" xmlns="http://www.w3.org/2000/svg">
<path d="M26.7728 27.4829H8.22546V16.61H26.7552L26.7728 27.4829ZM17.4786 17.4823C15.8956 17.4839 14.3374 17.8569 12.9424 18.5683C11.5475 19.2797 10.3589 20.3075 9.4822 21.5603C9.36622 21.6876 9.30237 21.8503 9.30237 22.0187C9.30237 22.187 9.36622 22.3498 9.4822 22.477C10.3645 23.7241 11.5554 24.7463 12.9503 25.454C14.3451 26.1617 15.9014 26.5332 17.4826 26.5359C19.0637 26.5387 20.6214 26.1726 22.019 25.4698C23.4166 24.7669 24.6113 23.7488 25.4985 22.5048C25.625 22.3703 25.695 22.1963 25.695 22.0159C25.695 21.8355 25.625 21.6614 25.4985 21.527C24.6138 20.2792 23.4192 19.2579 22.0204 18.5534C20.6216 17.849 19.0617 17.483 17.4786 17.4879V17.4823Z" fill="black"/>
<path d="M17.5313 15.5933C15.9583 15.5903 14.4096 15.2248 13.0179 14.5281C11.6262 13.8314 10.433 12.8243 9.54067 11.5931C9.39189 11.4426 9.30906 11.244 9.30906 11.0375C9.30906 10.831 9.39189 10.6323 9.54067 10.4819C10.4325 9.25295 11.6265 8.24946 13.0189 7.55859C14.4113 6.86771 15.9601 6.51032 17.5309 6.51744C19.1016 6.52456 20.6467 6.89597 22.0322 7.59943C23.4176 8.30289 24.6015 9.31714 25.4809 10.5541C25.607 10.6877 25.6768 10.8608 25.6768 11.0403C25.6768 11.2197 25.607 11.3928 25.4809 11.5264C24.6025 12.7665 23.4198 13.7848 22.0347 14.4934C20.6497 15.2019 19.1041 15.5794 17.5313 15.5933ZM20.9917 11.093C21.008 10.4306 20.8162 9.77866 20.4408 9.22033C20.0655 8.662 19.5236 8.22266 18.8843 7.95839C18.2451 7.69411 17.5375 7.61689 16.8518 7.7366C16.1662 7.8563 15.5336 8.1675 15.0349 8.63046C14.5362 9.09341 14.194 9.68712 14.0519 10.3358C13.9098 10.9845 13.9743 11.6587 14.2372 12.2723C14.5001 12.886 14.9494 13.4113 15.5278 13.7811C16.1062 14.151 16.7874 14.3486 17.4845 14.3488C18.4007 14.349 19.2806 14.0085 19.936 13.4001C20.5914 12.7916 20.9703 11.9636 20.9917 11.093Z" fill="black"/>
<path d="M17.496 25.2993C16.8163 25.2883 16.1551 25.0867 15.5956 24.7197C15.0361 24.3526 14.6032 23.8366 14.3513 23.2365C14.0993 22.6363 14.0397 21.9787 14.1797 21.3464C14.3198 20.7141 14.6534 20.1353 15.1385 19.6826C15.6237 19.2299 16.2388 18.9237 16.9065 18.8022C17.5742 18.6808 18.2648 18.7497 18.8915 19.0002C19.5182 19.2507 20.053 19.6717 20.4287 20.2102C20.8044 20.7487 21.0043 21.3807 21.0032 22.0269C21.0018 22.4614 20.9096 22.8913 20.732 23.2917C20.5544 23.6921 20.295 24.055 19.9687 24.3593C19.6425 24.6637 19.256 24.9035 18.8315 25.0649C18.4071 25.2262 17.9531 25.3059 17.496 25.2993Z" fill="black"/>
</svg>
