<svg width="34" height="34" viewBox="0 0 34 34" fill="none" xmlns="http://www.w3.org/2000/svg">
<g clip-path="url(#clip0_1323_6720)">
<path fill-rule="evenodd" clip-rule="evenodd" d="M19.0474 16.8879C17.5926 16.9717 16.6809 16.6328 15.2259 16.7169C14.865 16.7371 14.5067 16.7894 14.155 16.8732C14.3698 14.1825 16.2741 11.8287 18.8636 11.6791C20.4527 11.5874 22.041 12.5685 22.1271 14.1613C22.2119 15.7267 21.0182 16.774 19.0476 16.8877L19.0474 16.8879ZM15.1407 22.3916C13.6184 22.4776 12.0971 21.5591 12.0144 20.0686C11.9332 18.6035 13.0769 17.6234 14.9647 17.517C16.3583 17.4384 17.2318 17.7557 18.6253 17.677C18.9708 17.658 19.3141 17.6091 19.6512 17.5307C19.4458 20.0488 17.6216 22.2518 15.1407 22.3916ZM17 4.86226C10.2963 4.86206 4.86207 10.2962 4.86207 17C4.86207 23.7037 10.2963 29.1379 17 29.1379C23.7037 29.1379 29.1379 23.7035 29.1379 17C29.1379 10.2964 23.7037 4.86206 17 4.86206" fill="black"/>
</g>
<defs>
<clipPath id="clip0_1323_6720">
<rect width="34" height="34" fill="white"/>
</clipPath>
</defs>
</svg>
